<svg xmlns="http://www.w3.org/2000/svg" xmlns:xlink="http://www.w3.org/1999/xlink" viewBox="0 0 1024 1024"><defs><style>.cls-1{stroke:#326600;fill:url(#名称未設定グラデーション_18);}.cls-1,.cls-2,.cls-3,.cls-4,.cls-5{stroke-linecap:round;stroke-linejoin:round;}.cls-1,.cls-3,.cls-4,.cls-5{stroke-width:20px;}.cls-2{fill:none;stroke:#000;stroke-width:40px;}.cls-3{fill:#f2f2f2;stroke:#ccc;}.cls-4{stroke:#666;fill:url(#名称未設定グラデーション_51);}.cls-5{stroke:#c1272d;fill:url(#名称未設定グラデーション_61);}</style><linearGradient id="名称未設定グラデーション_18" x1="512" y1="64" x2="512" y2="878.3" gradientUnits="userSpaceOnUse"><stop offset="0" stop-color="#ff0"/><stop offset="1" stop-color="#e8e800"/></linearGradient><linearGradient id="名称未設定グラデーション_51" x1="512" y1="549.88" x2="512" y2="892.44" gradientUnits="userSpaceOnUse"><stop offset="0" stop-color="#d9d9d9"/><stop offset="1" stop-color="#bfbfbf"/></linearGradient><linearGradient id="名称未設定グラデーション_61" x1="256" y1="544" x2="256" y2="992" gradientUnits="userSpaceOnUse"><stop offset="0" stop-color="#fff"/><stop offset="1" stop-color="red"/></linearGradient></defs><title>アートボード 1</title><g id="Eldstar"><path id="Base" class="cls-1" d="M938.07,373.56c-10.14-31.23-142.86-58.06-269.7-76.79C611.36,181.93,544.84,64,512,64S412.64,181.93,355.63,296.77C228.79,315.5,96.07,342.33,85.93,373.56S167.38,504.5,259,594.21c-21.39,126.42-36.88,260.93-10.32,280.23S398.38,837.44,512,778c113.62,59.41,236.76,115.71,263.33,96.41S786.4,720.63,765,594.21C856.62,504.5,948.22,404.79,938.07,373.56Z"/><line id="EyeLeft" class="cls-2" x1="416" y1="416" x2="416" y2="512"/><path id="EyebrowLeft" class="cls-3" d="M448,352c-64-32-160,32-128,64S352,384,448,352Z"/><line id="EyeRight" class="cls-2" x1="608" y1="416" x2="608" y2="512"/><path id="EyebrowRight" class="cls-3" d="M576,352c64-32,160,32,128,64S672,384,576,352Z"/><path id="Moustache" class="cls-4" d="M512,576C320,448,320,832,128,832c160,128,288,32,384-96,96,128,224,224,384,96C704,832,704,448,512,576Z"/></g><g id="Cheats"><path class="cls-5" d="M423.65,745.93,480,708l-23.17-55.93-66.68,13-31.21-31.21,13-66.68L316,544l-37.95,56.35H233.93L196,544l-55.93,23.17,13,66.68-31.21,31.21-66.68-13L32,708l56.35,37.95v44.14L32,828,55.17,884l66.68-13,31.21,31.21-13,66.68L196,992l38-56.35h44.14L316,992,372,968.83l-13-66.68,31.21-31.21,66.68,13L480,828l-56.35-37.95ZM256,845.3A77.3,77.3,0,1,1,333.3,768,77.3,77.3,0,0,1,256,845.3Z"/></g></svg>